Coordinates
version=1
nRows=25
nColumns=23
inDegrees=yes

Units are S.I. units (second, meters, Newtons, ...)
If the header above contains a line with 'inDegrees', this indicates whether rotational values are in degrees (yes) or radians (no).

endheader
time	pelvis_tilt	pelvis_list	pelvis_rotation	pelvis_tx	pelvis_ty	pelvis_tz	hip_flexion_r	hip_adduction_r	hip_rotation_r	knee_angle_r	knee_angle_r_beta	ankle_angle_r	subtalar_angle_r	mtp_angle_r	hip_flexion_l	hip_adduction_l	hip_rotation_l	knee_angle_l	knee_angle_l_beta	ankle_angle_l	subtalar_angle_l	mtp_angle_l
      7.50000000	    -11.02774455	      5.21637950	      1.40019551	      2.32543205	      1.04622860	      1.02329170	     -7.99830925	     -3.62373812	     -8.63462606	     21.47608082	      0.37482832	     -8.40305378	      4.35941631	      0.00000000	     46.81383504	      2.22923418	     -7.10900104	     67.17593993	      1.17244133	      5.86442755	    -10.07915451	      0.00000000
      7.50666667	    -11.47106491	      5.07266522	      1.93964467	      2.32768132	      1.04916381	      1.02268663	     -8.61942155	     -3.37251771	     -8.87434647	     21.11635535	      0.36854993	    -12.01652180	      2.33382783	      0.00000000	     46.77398596	      2.47112419	     -7.44433902	     62.90265789	      1.09785849	      6.37654090	     -8.99810181	      0.00000000
      7.51333333	    -11.84029077	      4.97840183	      2.42903142	      2.32979060	      1.05175366	      1.02200753	     -9.00753508	     -3.39082549	     -9.77958939	     21.41946630	      0.37384021	    -14.88378371	      1.66488845	      0.00000000	     46.51833059	      2.73701565	     -7.94969085	     58.48524530	      1.02076009	      6.76277204	     -7.86872794	      0.00000000
      7.52000000	    -11.97148247	      4.82434241	      2.74139004	      2.33189249	      1.05427582	      1.02154779	     -9.61011652	     -3.12317425	     -9.42299285	     21.67972232	      0.37838254	    -17.64397217	     -0.42200225	      0.00000000	     45.87858676	      2.76360407	     -8.78972117	     54.00354806	      0.94253972	      7.13109757	     -6.31375110	      0.00000000
      7.52666667	    -12.05675655	      4.74015822	      2.97599644	      2.33385251	      1.05637630	      1.02103613	    -10.01039255	     -3.07194774	     -9.34103225	     22.48719846	      0.39247565	    -19.55338959	     -1.50084624	      0.00000000	     45.07866457	      2.83759668	     -9.86014984	     49.45771871	      0.86320003	      7.30772334	     -4.70724791	      0.00000000
      7.53333333	    -12.06889453	      4.73925382	      3.08640702	      2.33563998	      1.05806313	      1.02053353	    -10.27041456	     -3.17535156	     -9.15189717	     23.74572033	      0.41444100	    -20.72692481	     -2.09886533	      0.00000000	     44.11128875	      2.97185768	    -11.14802215	     44.90124298	      0.78367453	      7.20139180	     -3.20223552	      0.00000000
      7.54000000	    -11.96474734	      4.75392226	      3.09092224	      2.33729531	      1.05940005	      1.02006500	    -10.52201434	     -3.26664109	     -8.57042918	     25.24691701	      0.44064183	    -21.31168862	     -2.63186965	      0.00000000	     42.96991014	      3.11323231	    -12.61262926	     40.45077934	      0.70599928	      6.94070002	     -1.56965757	      0.00000000
      7.54666667	    -11.78283374	      4.77824468	      3.03389484	      2.33878580	      1.06031535	      1.01961269	    -10.73117626	     -3.32105984	     -7.67618847	     26.97971456	      0.47088485	    -21.31766784	     -2.96858467	      0.00000000	     41.74107075	      3.33293069	    -14.07070685	     36.18243676	      0.63150265	      6.53378708	     -0.00453304	      0.00000000
      7.55333333	    -11.36502598	      4.89698065	      2.91926261	      2.34017626	      1.06098298	      1.01922940	    -11.08081251	     -3.48477445	     -6.81156162	     28.93668940	      0.50504050	    -20.81713423	     -2.80078720	      0.00000000	     40.26778779	      3.68404811	    -15.55949303	     32.17294921	      0.56152389	      6.08929219	      1.65600207	      0.00000000
      7.56000000	    -11.23317083	      4.94007133	      2.77164167	      2.34114532	      1.06077116	      1.01878484	    -10.89089484	     -3.54394951	     -5.62781047	     31.29246918	      0.54615662	    -19.97106031	     -2.76077984	      0.00000000	     39.21022448	      4.14439776	    -16.45712022	     28.53280716	      0.49799143	      5.43147126	      2.57076604	      0.00000000
      7.56666667	    -10.93016931	      5.10189439	      2.59729386	      2.34202067	      1.06029698	      1.01849078	    -10.78418791	     -3.75619952	     -4.65856433	     33.81772284	      0.59023061	    -18.92778981	     -2.35445664	      0.00000000	     38.00436970	      4.75403214	    -17.11153363	     25.24204229	      0.44055675	      4.77120155	      3.12984533	      0.00000000
      7.57333333	    -10.46912212	      5.55200854	      2.56114294	      2.34275981	      1.05953212	      1.01800823	    -10.69154939	     -4.56500996	     -4.85202323	     36.73169184	      0.64108896	    -17.48634303	      0.04939141	      0.00000000	     36.58920012	      5.94115334	    -16.71953723	     22.07437911	      0.38527060	      3.83934435	      2.27169120	      0.00000000
      7.58000000	    -10.08319770	      5.88928116	      2.49744653	      2.34329481	      1.05824379	      1.01784567	    -10.43055968	     -5.04371703	     -4.39947323	     39.66586814	      0.69230000	    -16.37374273	      1.11601228	      0.00000000	     35.41298472	      6.85670387	    -16.32433738	     19.63798861	      0.34274756	      3.06595595	      1.76267289	      0.00000000
      7.58666667	     -9.76202904	      6.11648698	      2.45959524	      2.34360126	      1.05640006	      1.01792267	     -9.99476694	     -5.25268836	     -3.64239605	     42.67731685	      0.74485969	    -15.51959370	      1.29413518	      0.00000000	     34.55185374	      7.45458178	    -16.25292252	     18.15999352	      0.31695168	      2.63267440	      2.01209992	      0.00000000
      7.59333333	     -9.33055819	      6.34357532	      2.61937632	      2.34374584	      1.05425199	      1.01795068	     -9.62030901	     -5.41817043	     -3.18075112	     45.75472339	      0.79857057	    -14.75244447	      1.29669048	      0.00000000	     33.74408461	      8.05441563	    -15.95705540	     17.46187409	      0.30476720	      2.46410596	      2.27685909	      0.00000000
      7.60000000	     -8.91924714	      7.00335051	      2.72265245	      2.34383680	      1.05160284	      1.01792290	     -9.05832944	     -6.46636867	     -3.59349881	     49.17131067	      0.85820127	    -14.00982152	      3.08547791	      0.00000000	     32.93959824	      9.03520289	    -15.62310973	     17.05431995	      0.29765403	      1.82581931	      1.66668612	      0.00000000
      7.60666667	     -8.39331783	      7.37405979	      3.02488456	      2.34368838	      1.04871363	      1.01805094	     -8.63341793	     -6.80159584	     -3.44967858	     52.38867550	      0.91435488	    -13.62953305	      2.61669086	      0.00000000	     32.30298253	      9.62675699	    -15.38562481	     17.72023644	      0.30927647	      1.77172431	      1.76675608	      0.00000000
      7.61333333	     -8.25428853	      7.74995940	      3.29190893	      2.34328404	      1.04479303	      1.01816410	     -7.58476759	     -7.35309054	     -3.51347272	     55.90318892	      0.97569471	    -13.15106083	      2.93920957	      0.00000000	     32.32072514	      9.97755229	    -15.84215678	     19.27380666	      0.33639139	      2.12160627	      2.72094915	      0.00000000
      7.62000000	     -8.02309897	      8.07442583	      3.65091109	      2.34273431	      1.04063249	      1.01835419	     -6.60205335	     -7.73543260	     -3.49829679	     59.33978561	      1.03567464	    -12.80270262	      2.34894541	      0.00000000	     32.27362623	     10.33444409	    -15.80335844	     21.21510581	      0.37027345	      2.52912575	      3.00680688	      0.00000000
      7.62666667	     -7.51117670	      8.54248636	      4.03371345	      2.34218911	      1.03650096	      1.01848583	     -5.91527828	     -8.30344108	     -3.62319405	     62.69163911	      1.09417552	    -12.48525175	      1.49888355	      0.00000000	     31.86744055	     10.89784142	    -15.44391522	     23.32927312	      0.40717263	      3.07669240	      2.73979080	      0.00000000
      7.63333333	     -7.30880599	      8.82191646	      4.37853785	      2.34134106	      1.03158842	      1.01871470	     -4.72593919	     -8.74198566	     -3.66700890	     66.14849711	      1.15450907	    -12.04753939	      0.57317386	      0.00000000	     31.88758462	     11.24571825	    -14.97155480	     25.86377192	      0.45140798	      4.03087033	      2.37247747	      0.00000000
      7.64000000	     -7.49123077	      8.76524179	      4.71063291	      2.34021497	      1.02591283	      1.01899551	     -2.95229293	     -8.78675473	     -3.47887105	     69.62919569	      1.21525872	    -11.56847897	     -0.70009594	      0.00000000	     32.39323814	     11.27950223	    -14.33331105	     28.73573025	      0.50153311	      5.30263314	      1.85993589	      0.00000000
      7.64666667	     -7.36579181	      8.91433207	      4.98210886	      2.33900529	      1.02045854	      1.01913858	     -1.48201525	     -9.15243309	     -3.38593413	     73.00654643	      1.27420461	    -11.01693474	     -2.04456788	      0.00000000	     32.42968535	     11.63485163	    -13.46679257	     31.44649759	      0.54884492	      6.79645331	      0.74401294	      0.00000000
      7.65333333	     -7.29933486	      9.05438334	      5.20239897	      2.33764870	      1.01486707	      1.01923608	      0.15054051	     -9.58374209	     -3.25166961	     76.33189240	      1.33224285	    -10.37243017	     -3.36060563	      0.00000000	     32.44079701	     12.07285399	    -12.45398062	     34.06942427	      0.59462363	      8.52377618	     -0.68490248	      0.00000000
      7.66000000	     -7.24330541	      9.17978307	      5.35008056	      2.33613862	      1.00933466	      1.01932072	      1.89324643	    -10.03563664	     -3.01828756	     79.56221683	      1.38862264	     -9.65031671	     -4.74255684	      0.00000000	     32.36264152	     12.54456130	    -11.41300728	     36.55797831	      0.63805709	     10.33488714	     -2.35539599	      0.00000000
